<?xml version="1.0" encoding="UTF-8" standalone="no"?>
<svg
   xmlns:dc="http://purl.org/dc/elements/1.1/"
   xmlns:cc="http://creativecommons.org/ns#"
   xmlns:rdf="http://www.w3.org/1999/02/22-rdf-syntax-ns#"
   xmlns:svg="http://www.w3.org/2000/svg"
   xmlns="http://www.w3.org/2000/svg"
   viewBox="0 0 1152 384"
   height="384"
   width="1152"
   xml:space="preserve"
   id="svg2"
   version="1.1"><metadata
     id="metadata8"><rdf:RDF><cc:Work
         rdf:about=""><dc:format>image/svg+xml</dc:format><dc:type
           rdf:resource="http://purl.org/dc/dcmitype/StillImage" /></cc:Work></rdf:RDF></metadata><defs
     id="defs6" /><g
     transform="matrix(1.3333333,0,0,-1.3333333,0,384)"
     id="g10"><g
       transform="scale(0.1)"
       id="g12"><path
         id="path14"
         style="fill:#f47216;fill-opacity:1;fill-rule:nonzero;stroke:none"
         d="m 7914.63,1069.3 c 6.24,0 12.14,0.19 17.69,0.6 5.57,0.39 10.5,1.56 14.85,3.46 4.33,1.88 7.79,4.8 10.37,8.74 2.58,3.92 3.86,9.41 3.86,16.49 0,5.95 -1.16,10.71 -3.45,14.23 -2.31,3.51 -5.28,6.22 -8.95,8.13 -3.67,1.9 -7.87,3.18 -12.61,3.86 -4.75,0.67 -9.43,1.02 -14.05,1.02 h -36.59 v -56.53 z m 12.2,78.9 c 21.15,0 36.8,-4.21 46.99,-12.61 10.15,-8.4 15.23,-21.15 15.23,-38.23 0,-16 -4.47,-27.73 -13.42,-35.18 -8.93,-7.47 -20.04,-11.87 -33.34,-13.22 l 50.83,-78.511 h -29.68 l -48.39,76.461 h -29.3 V 970.449 H 7858.1 V 1148.2 Z m -125.47,-140.13 c 6.36,-15.84 15.18,-29.621 26.43,-41.269 11.26,-11.66 24.55,-20.821 39.86,-27.449 15.32,-6.661 31.94,-9.981 49.83,-9.981 17.62,0 34.02,3.32 49.22,9.981 15.18,6.628 28.4,15.789 39.65,27.449 11.26,11.648 20.06,25.429 26.42,41.269 6.38,15.88 9.57,33.15 9.57,51.87 0,18.16 -3.19,35.11 -9.57,50.84 -6.36,15.72 -15.16,29.36 -26.42,40.88 -11.25,11.52 -24.47,20.61 -39.65,27.24 -15.2,6.66 -31.6,9.97 -49.22,9.97 -17.89,0 -34.51,-3.31 -49.83,-9.97 -15.31,-6.63 -28.6,-15.72 -39.86,-27.24 -11.25,-11.52 -20.07,-25.16 -26.43,-40.88 -6.39,-15.73 -9.56,-32.68 -9.56,-50.84 0,-18.72 3.17,-35.99 9.56,-51.87 m -25.02,111.66 c 8.15,18.42 19.18,34.43 33.15,47.98 13.97,13.56 30.24,24.2 48.81,31.94 18.57,7.73 38.29,11.59 59.18,11.59 20.87,0 40.53,-3.86 58.97,-11.59 18.43,-7.74 34.56,-18.38 48.41,-31.94 13.82,-13.55 24.8,-29.56 32.94,-47.98 8.13,-18.45 12.2,-38.37 12.2,-59.79 0,-21.96 -4.07,-42.23 -12.2,-60.811 -8.14,-18.57 -19.12,-34.719 -32.94,-48.399 -13.85,-13.691 -29.98,-24.339 -48.41,-31.929 -18.44,-7.602 -38.1,-11.379 -58.97,-11.379 -20.89,0 -40.61,3.777 -59.18,11.379 -18.57,7.59 -34.84,18.238 -48.81,31.929 -13.97,13.68 -25,29.829 -33.15,48.399 -8.14,18.581 -12.2,38.851 -12.2,60.811 0,21.42 4.06,41.34 12.2,59.79" /><path
         id="path16"
         style="fill:#2857af;fill-opacity:1;fill-rule:nonzero;stroke:none"
         d="m 615.156,1936.02 h 177.27 c 101.48,1.25 198.039,40.35 198.039,138.16 0,94.14 -66.008,107.58 -141.789,107.58 H 666.484 Z m -110,394.87 h 416.871 c 157.663,2.47 260.403,-59.87 260.403,-228.59 0,-118.59 -83.13,-217.61 -200.473,-234.72 v -2.46 c 72.113,-22 90.473,-85.58 90.473,-154.03 0,-39.13 -6.18,-97.8 -6.18,-151.59 0,-39.14 2.5,-75.82 12.27,-101.49 H 891.484 c -4.918,20.77 -8.597,39.13 -8.597,58.66 0,58.72 9.769,118.6 9.769,177.28 0,84.37 -50.078,105.16 -125.941,105.16 H 585.777 l -72.101,-341.1 H 321.715 l 183.441,872.88" /><path
         id="path18"
         style="fill:#2857af;fill-opacity:1;fill-rule:nonzero;stroke:none"
         d="m 1387.81,2330.9 h 666.25 l -32.97,-161.37 h -474.37 l -39.14,-187.03 h 438.9 l -31.79,-149.18 h -438.91 l -45.24,-213.94 h 481.72 l -34.22,-161.37 h -673.67 l 183.44,872.89" /><path
         id="path20"
         style="fill:#2857af;fill-opacity:1;fill-rule:nonzero;stroke:none"
         d="m 2680,1547.27 h -2.42 c -57.5,-78.25 -139.38,-110.04 -220.08,-110.04 -244.53,0 -387.58,140.59 -387.58,386.32 0,282.43 182.19,528.13 476.8,528.13 204.22,0 370.47,-95.35 370.47,-309.29 h -191.96 c -4.92,105.15 -70.93,147.93 -177.26,147.93 -196.8,0 -286.1,-199.27 -286.1,-366.77 0,-119.8 58.68,-224.96 198.05,-224.96 145.47,0 209.06,77.03 242.11,188.28 h -201.72 l 30.55,143.06 h 370.39 L 2801.02,1458.01 H 2680 v 89.26" /><path
         id="path22"
         style="fill:#2857af;fill-opacity:1;fill-rule:nonzero;stroke:none"
         d="m 3131.09,2330.9 h 666.33 l -33.04,-161.37 H 3290 l -39.07,-187.03 h 438.91 l -31.8,-149.18 h -438.89 l -45.24,-213.94 h 481.63 l -34.22,-161.37 h -673.59 l 183.36,872.89" /><path
         id="path24"
         style="fill:#2857af;fill-opacity:1;fill-rule:nonzero;stroke:none"
         d="m 3947.73,2330.9 h 198.06 l 237.18,-621.05 h 2.42 l 124.77,621.05 h 176.01 L 4501.56,1458.01 H 4309.61 L 4070,2070.51 h -2.43 l -124.67,-612.5 h -179.77 l 184.6,872.89" /><path
         id="path26"
         style="fill:#2857af;fill-opacity:1;fill-rule:nonzero;stroke:none"
         d="m 4852.42,2330.9 h 666.33 l -33.05,-161.37 h -474.37 l -39.06,-187.03 h 438.9 l -31.79,-149.18 h -438.91 l -45.24,-213.94 h 481.65 l -34.22,-161.37 h -673.6 l 183.36,872.89" /><path
         id="path28"
         style="fill:#2857af;fill-opacity:1;fill-rule:nonzero;stroke:none"
         d="m 5777.89,1936.02 h 177.27 c 101.48,1.25 198.04,40.35 198.04,138.16 0,94.14 -66.01,107.58 -141.79,107.58 h -182.19 z m -110,394.87 h 416.88 c 157.65,2.47 260.39,-59.87 260.39,-228.59 0,-118.59 -83.13,-217.61 -200.47,-234.72 v -2.46 c 72.11,-22 90.47,-85.58 90.47,-154.03 0,-39.13 -6.18,-97.8 -6.18,-151.59 0,-39.14 2.5,-75.82 12.27,-101.49 h -187.03 c -4.92,20.77 -8.59,39.13 -8.59,58.66 0,58.72 9.76,118.6 9.76,177.28 0,84.37 -50.08,105.16 -125.94,105.16 h -180.93 l -72.11,-341.1 h -191.96 l 183.44,872.88" /><path
         id="path30"
         style="fill:#2857af;fill-opacity:1;fill-rule:nonzero;stroke:none"
         d="m 6807.27,1598.59 c 188.28,0 282.42,200.51 282.42,365.55 0,122.27 -53.83,226.17 -194.38,226.17 -196.87,0 -286.09,-199.26 -286.09,-366.76 0,-119.8 58.67,-224.96 198.05,-224.96 m 86.79,753.09 c 235.94,0 387.5,-129.57 387.5,-374.11 0,-287.3 -171.09,-540.35 -476.72,-540.35 -244.53,0 -387.57,140.59 -387.57,386.33 0,282.42 182.18,528.13 476.79,528.13" /><path
         id="path32"
         style="fill:#2857af;fill-opacity:1;fill-rule:nonzero;stroke:none"
         d="m 7502.89,2330.9 h 198.05 l 237.19,-621.05 h 2.42 l 124.68,621.05 h 176.1 l -184.61,-872.89 h -191.94 l -239.62,612.5 h -2.43 l -124.76,-612.5 h -179.69 l 184.61,872.89" /><path
         id="path34"
         style="fill:#f47216;fill-opacity:1;fill-rule:nonzero;stroke:none"
         d="m 2190.11,961.961 2.2,10.359 c 6.77,31.82 1.96,61.42 -39.49,61.42 -31.82,0 -60.12,-14.79 -67.99,-51.799 -6.6,-31.082 4.78,-43.66 43.82,-58.461 l 47.29,-17.769 c 54.95,-19.981 75.57,-51.789 62.2,-114.699 -18.09,-85.114 -87.97,-121.371 -168.64,-121.371 -100.64,0 -121.07,46.621 -104.71,123.589 l 3.15,14.801 h 71.04 l -2.67,-12.582 c -9.76,-45.89 1.17,-71.051 47.06,-71.051 43.66,0 69.84,22.204 77.55,58.473 6.29,29.598 -5.16,48.84 -31.23,58.457 l -60.25,22.953 c -55.54,20.707 -74.25,51.051 -60.72,114.699 15.89,74.75 77.3,109.53 159.45,109.53 101.38,0 111.74,-59.2 101.2,-108.791 l -3.78,-17.758 h -75.48" /><path
         id="path36"
         style="fill:#f47216;fill-opacity:1;fill-rule:nonzero;stroke:none"
         d="m 2573.19,825.051 c -25.48,-95.473 -70.78,-155.41 -169.21,-155.41 -115.44,0 -129.76,85.847 -103.49,209.429 26.27,123.6 77.08,209.44 192.53,209.44 119.48,1.48 117.09,-93.248 106.55,-142.83 h -79.92 c 7.86,37.011 7.73,85.1 -39.21,83.63 -57.73,0 -81.3,-62.169 -100.02,-150.24 -18.72,-88.058 -21.58,-150.218 36.14,-150.218 44.25,-0.743 68.4,36.257 81.15,96.199 h 75.48" /><path
         id="path38"
         style="fill:#f47216;fill-opacity:1;fill-rule:nonzero;stroke:none"
         d="m 2719.55,1214.32 h 79.93 l -16.99,-79.93 h -79.92 z m -28.95,-136.18 h 79.94 L 2685.9,680 h -79.92 l 84.62,398.14" /><path
         id="path40"
         style="fill:#f47216;fill-opacity:1;fill-rule:nonzero;stroke:none"
         d="m 3015.15,923.48 4.57,21.461 c 10.69,50.321 2.59,88.799 -42.55,88.799 -51.07,0 -77.31,-50.318 -88.32,-102.119 l -1.74,-8.141 z m -139.68,-54.769 -4.86,-22.941 c -11.33,-53.282 -19.15,-121.372 40.8,-121.372 56.97,0 77.49,65.133 82.52,88.813 h 75.48 c -18.72,-88.063 -83.79,-143.57 -170.39,-143.57 -65.11,0 -141.7,19.238 -102.53,203.507 22.2,104.352 68,215.362 193.06,215.362 111.01,0 126.45,-66.61 102.86,-177.612 l -8.97,-42.187 h -207.97" /><path
         id="path42"
         style="fill:#f47216;fill-opacity:1;fill-rule:nonzero;stroke:none"
         d="m 3193.79,1078.14 h 75.49 l -9.91,-46.62 h 2.22 c 27.53,35.53 69.84,56.99 114.24,56.99 60.68,0 93.34,-27.39 76.2,-108.049 l -63.87,-300.449 h -79.93 l 58.05,273.066 c 11.02,51.802 -0.28,71.782 -40.24,71.782 -32.56,0 -69.15,-25.899 -80.17,-77.7 l -56.79,-267.148 h -79.92 l 84.63,398.128" /><path
         id="path44"
         style="fill:#f47216;fill-opacity:1;fill-rule:nonzero;stroke:none"
         d="m 3764.56,825.051 c -25.48,-95.473 -70.78,-155.41 -169.21,-155.41 -115.45,0 -129.76,85.847 -103.49,209.429 26.27,123.6 77.08,209.44 192.53,209.44 119.47,1.48 117.09,-93.248 106.55,-142.83 h -79.92 c 7.86,37.011 7.73,85.1 -39.21,83.63 -57.73,0 -81.3,-62.169 -100.02,-150.24 -18.72,-88.058 -21.58,-150.218 36.15,-150.218 44.24,-0.743 68.39,36.257 81.13,96.199 h 75.49" /><path
         id="path46"
         style="fill:#f47216;fill-opacity:1;fill-rule:nonzero;stroke:none"
         d="m 4042.25,923.48 4.57,21.461 c 10.68,50.321 2.59,88.799 -42.55,88.799 -51.06,0 -77.3,-50.318 -88.32,-102.119 l -1.74,-8.141 z m -139.67,-54.769 -4.87,-22.941 c -11.33,-53.282 -19.15,-121.372 40.8,-121.372 56.98,0 77.49,65.133 82.52,88.813 h 75.48 c -18.71,-88.063 -83.8,-143.57 -170.38,-143.57 -65.12,0 -141.71,19.238 -102.54,203.507 22.2,104.352 68,215.362 193.06,215.362 111.01,0 126.45,-66.61 102.86,-177.612 l -8.97,-42.187 h -207.96" /><path
         id="path48"
         style="fill:#f47216;fill-opacity:1;fill-rule:nonzero;stroke:none"
         d="m 4362.96,1078.14 h 54.76 l 24.08,113.24 h 79.92 l -24.07,-113.24 h 65.12 l -12.58,-59.19 h -65.13 l -50.5,-237.559 c -6.6,-31.09 -0.09,-42.192 27.3,-42.192 11.84,0 21.62,0.742 29.33,2.231 l -12.59,-59.211 c -17.96,-4.438 -40.63,-6.66 -65.8,-6.66 -54.02,0 -77.52,14.8 -60.2,96.211 l 52.54,247.18 h -54.77 l 12.59,59.19" /><path
         id="path50"
         style="fill:#f47216;fill-opacity:1;fill-rule:nonzero;stroke:none"
         d="m 4662.42,728.852 c 58.46,0 79.21,48.839 100.76,150.218 18.72,88.071 21.58,150.24 -36.89,150.24 -57.73,0 -81.3,-62.169 -100.02,-150.24 -21.56,-101.379 -21.57,-150.218 36.15,-150.218 m 76.47,359.658 c 116.17,0 130.49,-85.84 104.22,-209.44 -26.27,-123.582 -82.27,-209.429 -193.28,-209.429 -110.26,0 -129.76,85.847 -103.48,209.429 26.27,123.6 77.08,209.44 192.54,209.44" /><path
         id="path52"
         style="fill:#f47216;fill-opacity:1;fill-rule:nonzero;stroke:none"
         d="m 5128.11,1078.14 h 75.48 l -9.91,-46.62 h 2.23 c 27.53,35.53 69.83,56.99 107.58,56.99 56.98,0 74.83,-27.39 79.6,-60.69 31.12,38.49 65.45,60.69 113.55,60.69 56.24,0 90.81,-28.86 74.44,-105.819 l -64.33,-302.679 h -79.93 l 58.05,273.066 c 11.01,51.802 -0.29,71.782 -32.85,71.782 -32.56,0 -69.15,-25.899 -80.15,-77.7 l -56.8,-267.148 h -79.92 l 58.04,273.066 c 11.02,51.802 -0.29,71.782 -33.58,71.782 -31.82,0 -68.41,-25.899 -79.42,-77.7 L 5123.4,680.012 h -79.92 l 84.63,398.128" /><path
         id="path54"
         style="fill:#f47216;fill-opacity:1;fill-rule:nonzero;stroke:none"
         d="m 5835.98,923.48 4.57,21.461 c 10.69,50.321 2.59,88.799 -42.55,88.799 -51.07,0 -77.31,-50.318 -88.32,-102.119 l -1.73,-8.141 z m -139.67,-54.769 -4.87,-22.941 c -11.33,-53.282 -19.15,-121.372 40.8,-121.372 56.98,0 77.49,65.133 82.52,88.813 h 75.48 c -18.72,-88.063 -83.79,-143.57 -170.39,-143.57 -65.11,0 -141.7,19.238 -102.53,203.507 22.19,104.352 67.99,215.362 193.06,215.362 111.01,0 126.45,-66.61 102.85,-177.612 l -8.96,-42.187 h -207.96" /><path
         id="path56"
         style="fill:#f47216;fill-opacity:1;fill-rule:nonzero;stroke:none"
         d="m 6134.29,1024.86 c -45.89,0 -70.03,-37.001 -92.84,-144.301 -19.19,-90.297 -19.47,-147.278 36.03,-147.278 54.77,0 79.31,56.25 97.39,141.348 20.3,95.473 20.84,150.231 -40.58,150.231 m 9.6,-296.008 h -1.49 c -15.87,-25.911 -42.93,-59.211 -99.91,-59.211 -93.24,0 -113.73,77.699 -84.63,214.621 37.61,176.858 105.59,204.248 166.27,204.248 42.93,0 70.93,-21.46 78.17,-56.99 h 1.49 l 37.6,176.88 h 79.92 L 6208.98,680 h -75.48 l 10.39,48.852" /><path
         id="path58"
         style="fill:#f47216;fill-opacity:1;fill-rule:nonzero;stroke:none"
         d="m 6403.2,1214.32 h 79.93 l -17,-79.93 h -79.92 z m -28.96,-136.18 h 79.94 L 6369.54,680 h -79.92 l 84.62,398.14" /><path
         id="path60"
         style="fill:#f47216;fill-opacity:1;fill-rule:nonzero;stroke:none"
         d="m 6749.66,825.051 c -25.48,-95.473 -70.78,-155.41 -169.21,-155.41 -115.45,0 -129.77,85.847 -103.5,209.429 26.28,123.6 77.09,209.44 192.54,209.44 119.47,1.48 117.09,-93.248 106.55,-142.83 h -79.93 c 7.86,37.011 7.74,85.1 -39.21,83.63 -57.72,0 -81.29,-62.169 -100.02,-150.24 -18.72,-88.058 -21.57,-150.218 36.16,-150.218 44.24,-0.743 68.39,36.257 81.13,96.199 h 75.49" /><path
         id="path62"
         style="fill:#f47216;fill-opacity:1;fill-rule:nonzero;stroke:none"
         d="m 6896.02,1214.32 h 79.93 l -16.99,-79.93 h -79.93 z m -28.95,-136.18 H 6947 L 6862.36,680 h -79.92 l 84.63,398.14" /><path
         id="path64"
         style="fill:#f47216;fill-opacity:1;fill-rule:nonzero;stroke:none"
         d="m 7027.64,1078.14 h 75.49 l -9.92,-46.62 h 2.23 c 27.53,35.53 69.83,56.99 114.24,56.99 60.67,0 93.34,-27.39 76.2,-108.049 L 7222,680.012 h -79.92 l 58.05,273.066 c 11.01,51.802 -0.29,71.782 -40.25,71.782 -32.56,0 -69.15,-25.899 -80.16,-77.7 l -56.79,-267.148 h -79.92 l 84.63,398.128" /><path
         id="path66"
         style="fill:#f47216;fill-opacity:1;fill-rule:nonzero;stroke:none"
         d="m 7547.54,923.48 4.57,21.461 c 10.69,50.321 2.6,88.799 -42.55,88.799 -51.06,0 -77.3,-50.318 -88.32,-102.119 l -1.73,-8.141 z M 7407.87,868.711 7403,845.77 c -11.33,-53.282 -19.14,-121.372 40.8,-121.372 56.98,0 77.49,65.133 82.52,88.813 h 75.49 c -18.72,-88.063 -83.8,-143.57 -170.39,-143.57 -65.12,0 -141.7,19.238 -102.53,203.507 22.18,104.352 67.99,215.362 193.04,215.362 111.02,0 126.46,-66.61 102.86,-177.612 l -8.96,-42.187 h -207.96" /></g></g></svg>